<?xml version="1.0" encoding="utf-8"?>
<!-- Generator: Adobe Illustrator 25.0.0, SVG Export Plug-In . SVG Version: 6.00 Build 0)  -->
<svg version="1.1" id="Layer_1" xmlns="http://www.w3.org/2000/svg" xmlns:xlink="http://www.w3.org/1999/xlink" x="0px" y="0px"
	 viewBox="0 0 393.6 192" style="enable-background:new 0 0 393.6 192;" xml:space="preserve">
<style type="text/css">
	.st0{fill:#EC1C24;}
	.st1{fill:#034EA1;}
	.st2{fill:#626366;}
</style>
<g>
	<g>
		<path class="st0" d="M139.86,66.9l-22.54,9.34c-3.12-7.52-8.42-13.9-15.13-18.34l13.46-20.34
			C126.38,44.67,134.87,54.87,139.86,66.9z"/>
		<path class="st1" d="M105.08,123.6c-6.95,5.54-15.75,8.85-25.33,8.85c-5.51,0-10.77-1.1-15.56-3.09c-2.42-1-4.72-2.23-6.87-3.67h0
			c-6.7-4.44-12.01-10.82-15.13-18.34c-1.99-4.79-3.09-10.05-3.09-15.56c0-5.51,1.1-10.77,3.09-15.56
			c2.66-6.41,6.9-11.98,12.25-16.24c6.95-5.54,15.75-8.85,25.32-8.85c5.51,0,10.77,1.1,15.56,3.09l9.34-22.54
			c-7.67-3.18-16.08-4.94-24.9-4.94c-15.33,0-29.41,5.3-40.52,14.16c-8.55,6.82-15.34,15.74-19.59,25.99
			c-3.18,7.67-4.94,16.08-4.94,24.9s1.76,17.23,4.94,24.9c4.99,12.03,13.48,22.24,24.21,29.35c3.45,2.29,7.13,4.26,11,5.86
			c7.67,3.18,16.08,4.94,24.9,4.94c15.33,0,29.41-5.3,40.52-14.17L105.08,123.6z"/>
		<g>
			<path class="st1" d="M149.64,113.35l0.06,0.19c0.08,4.88-1.41,8.76-4.47,11.63c-3.07,2.87-7.32,4.3-12.77,4.3
				c-5.47,0-9.9-1.76-13.31-5.27c-3.41-3.51-5.11-8.03-5.11-13.56v-9.01c0-5.51,1.66-10.03,4.99-13.56c3.32-3.53,7.65-5.3,12.97-5.3
				c5.61,0,10,1.44,13.16,4.32c3.16,2.88,4.7,6.8,4.61,11.77l-0.06,0.19h-8.85c0-2.99-0.72-5.29-2.15-6.87
				c-1.43-1.59-3.67-2.38-6.7-2.38c-2.72,0-4.88,1.11-6.48,3.32c-1.6,2.21-2.4,5.03-2.4,8.46v9.06c0,3.47,0.84,6.31,2.53,8.52
				c1.68,2.21,3.96,3.32,6.83,3.32c2.85,0,4.95-0.76,6.31-2.29c1.36-1.53,2.04-3.8,2.04-6.81H149.64z"/>
			<path class="st1" d="M169.52,110.67v18.14h-9.1V83.42h17.12c5.18,0,9.22,1.18,12.14,3.54c2.92,2.36,4.38,5.65,4.38,9.87
				c0,2.35-0.61,4.36-1.84,6.05c-1.23,1.68-3.02,3.05-5.39,4.08c2.68,0.79,4.61,2.11,5.78,3.96c1.17,1.85,1.76,4.14,1.76,6.86v3.34
				c0,1.27,0.17,2.59,0.51,3.97c0.34,1.38,0.93,2.41,1.76,3.07v0.65h-9.38c-0.83-0.67-1.37-1.78-1.62-3.34
				c-0.25-1.56-0.37-3.03-0.37-4.43v-3.21c0-2.27-0.62-4.03-1.86-5.28c-1.24-1.26-2.98-1.89-5.22-1.89H169.52z M169.52,103.65h7.86
				c2.56,0,4.46-0.54,5.72-1.62c1.26-1.08,1.89-2.68,1.89-4.8c0-2.08-0.63-3.73-1.89-4.96c-1.26-1.23-3.11-1.84-5.56-1.84h-8.01
				V103.65z"/>
			<path class="st1" d="M234.53,108.86h-18.8v12.94h21.98v7.02h-31.08V83.42h31.02v7.02h-21.91v11.41h18.8V108.86z"/>
			<path class="st1" d="M247.66,128.81V83.42h15.59c5.55,0,10.12,1.77,13.72,5.32c3.6,3.54,5.39,8.09,5.39,13.64v7.51
				c0,5.57-1.8,10.12-5.39,13.64c-3.6,3.52-8.17,5.28-13.72,5.28H247.66z M256.77,90.44v31.36h6.02c3.26,0,5.82-1.1,7.67-3.3
				c1.85-2.2,2.77-5.08,2.77-8.63v-7.57c0-3.51-0.93-6.36-2.77-8.57c-1.85-2.2-4.41-3.3-7.67-3.3H256.77z"/>
			<path class="st0" d="M303.05,128.81h-9.1V83.42h9.1V128.81z"/>
			<path class="st0" d="M352.68,128.81h-9.07l-18.33-31.02l-0.19,0.03v30.99h-9.1V83.42h9.1l18.33,30.99l0.19-0.03V83.42h9.07
				V128.81z"/>
		</g>
		<g>
			<path class="st2" d="M141.4,151.25h-8.16v5.89h9.47v2.5h-12.58v-18.66h12.49v2.5h-9.38v5.27h8.16V151.25z"/>
			<path class="st2" d="M150.36,145.78l0.18,2c0.45-0.71,1.02-1.26,1.71-1.66c0.69-0.4,1.46-0.6,2.33-0.6
				c1.44,0,2.57,0.44,3.38,1.31c0.81,0.88,1.21,2.24,1.21,4.09v8.71h-3.11v-8.69c0-1.04-0.22-1.78-0.65-2.22
				c-0.43-0.44-1.09-0.66-1.97-0.66c-0.61,0-1.15,0.13-1.63,0.4c-0.48,0.27-0.87,0.64-1.18,1.11v10.06h-3.11v-13.87H150.36z"/>
			<path class="st2" d="M173.19,159.64c-0.11-0.35-0.2-0.69-0.28-1.03c-0.07-0.33-0.12-0.67-0.15-1c-0.43,0.65-0.99,1.19-1.69,1.63
				c-0.7,0.44-1.48,0.66-2.34,0.66c-1.44,0-2.55-0.37-3.33-1.12c-0.77-0.74-1.16-1.76-1.16-3.06c0-1.34,0.53-2.39,1.59-3.13
				c1.06-0.75,2.55-1.12,4.47-1.12h2.42v-1.22c0-0.73-0.21-1.29-0.64-1.7c-0.43-0.41-1.04-0.62-1.83-0.62
				c-0.71,0-1.27,0.17-1.69,0.51s-0.63,0.78-0.63,1.32h-3l-0.01-0.08c-0.06-1.09,0.43-2.06,1.47-2.91s2.39-1.27,4.06-1.27
				c1.61,0,2.92,0.41,3.91,1.23c0.99,0.82,1.49,2,1.49,3.54v6.16c0,0.57,0.04,1.12,0.12,1.65c0.08,0.53,0.2,1.04,0.37,1.54H173.19z
				 M169.38,157.42c0.79,0,1.49-0.2,2.12-0.59c0.63-0.39,1.04-0.84,1.25-1.35v-2.05h-2.47c-0.91,0-1.61,0.22-2.13,0.67
				s-0.77,0.98-0.77,1.58c0,0.53,0.17,0.95,0.52,1.26C168.24,157.26,168.74,157.42,169.38,157.42z"/>
			<path class="st2" d="M193.86,153.17c0,2.03-0.47,3.65-1.42,4.89c-0.94,1.24-2.27,1.85-3.99,1.85c-0.86,0-1.61-0.18-2.25-0.53
				c-0.64-0.35-1.17-0.86-1.6-1.54l-0.31,1.79h-2.61v-19.99h3.11v7.7c0.43-0.59,0.94-1.04,1.54-1.36c0.6-0.32,1.29-0.47,2.09-0.47
				c1.73,0,3.07,0.67,4.02,2.02c0.94,1.35,1.42,3.13,1.42,5.36V153.17z M190.75,152.9c0-1.44-0.25-2.61-0.74-3.5
				c-0.5-0.89-1.28-1.33-2.36-1.33c-0.69,0-1.27,0.15-1.74,0.46c-0.47,0.31-0.84,0.74-1.11,1.28v5.82c0.27,0.56,0.63,0.98,1.1,1.29
				c0.47,0.3,1.06,0.45,1.77,0.45c1.08,0,1.86-0.38,2.35-1.13c0.49-0.76,0.73-1.78,0.73-3.07V152.9z"/>
			<path class="st2" d="M202.39,159.64h-3.11v-19.99h3.11V159.64z"/>
			<path class="st2" d="M211.54,142.38h-3.11v-2.73h3.11V142.38z M211.54,159.64h-3.11v-13.87h3.11V159.64z"/>
			<path class="st2" d="M220.31,145.78l0.18,2c0.45-0.71,1.02-1.26,1.71-1.66s1.46-0.6,2.33-0.6c1.44,0,2.57,0.44,3.38,1.31
				c0.81,0.88,1.21,2.24,1.21,4.09v8.71H226v-8.69c0-1.04-0.22-1.78-0.65-2.22c-0.43-0.44-1.09-0.66-1.97-0.66
				c-0.61,0-1.15,0.13-1.63,0.4c-0.48,0.27-0.87,0.64-1.18,1.11v10.06h-3.11v-13.87H220.31z"/>
			<path class="st2" d="M234.36,152.9c0-2.2,0.48-3.99,1.45-5.34c0.96-1.36,2.31-2.04,4.02-2.04c0.83,0,1.56,0.18,2.19,0.53
				s1.16,0.87,1.59,1.53l0.31-1.81h2.59v13.87c0,1.79-0.55,3.17-1.65,4.14c-1.1,0.97-2.67,1.46-4.69,1.46c-0.67,0-1.4-0.1-2.18-0.29
				c-0.78-0.19-1.49-0.45-2.12-0.76l0.67-2.45c0.51,0.26,1.08,0.47,1.7,0.62c0.62,0.15,1.26,0.22,1.92,0.22
				c1.13,0,1.95-0.24,2.47-0.72c0.52-0.48,0.78-1.22,0.78-2.22v-1.42c-0.44,0.56-0.95,0.98-1.54,1.26s-1.28,0.43-2.04,0.43
				c-1.7,0-3.03-0.62-4-1.86c-0.97-1.24-1.45-2.87-1.45-4.88V152.9z M237.48,153.17c0,1.27,0.25,2.29,0.76,3.06
				c0.51,0.76,1.3,1.15,2.36,1.15c0.67,0,1.23-0.14,1.68-0.42s0.83-0.68,1.11-1.2v-6.07c-0.29-0.5-0.66-0.9-1.12-1.19
				c-0.46-0.29-1.01-0.43-1.65-0.43c-1.07,0-1.86,0.45-2.38,1.35c-0.52,0.9-0.78,2.06-0.78,3.49V153.17z"/>
			<path class="st2" d="M265.09,152.57v7.07h-3.11v-18.66h7.29c2.06,0,3.67,0.53,4.84,1.6s1.75,2.46,1.75,4.2
				c0,1.75-0.58,3.15-1.75,4.21c-1.17,1.06-2.78,1.58-4.84,1.58H265.09z M265.09,150.07h4.18c1.15,0,2.02-0.31,2.6-0.92
				c0.58-0.62,0.87-1.4,0.87-2.34s-0.29-1.74-0.87-2.37c-0.58-0.63-1.45-0.95-2.6-0.95h-4.18V150.07z"/>
			<path class="st2" d="M286.63,159.91c-1.96,0-3.53-0.64-4.7-1.93c-1.17-1.29-1.75-2.94-1.75-4.95v-0.51
				c0-2.02,0.58-3.69,1.74-5.02c1.16-1.33,2.61-1.99,4.35-1.98c1.87,0,3.3,0.57,4.3,1.7c1,1.13,1.49,2.65,1.49,4.56v1.83h-8.65
				l-0.03,0.06c0.05,1.1,0.37,2,0.97,2.69c0.59,0.7,1.42,1.05,2.47,1.05c0.84,0,1.55-0.1,2.15-0.31c0.6-0.21,1.17-0.5,1.73-0.88
				l1,2.04c-0.52,0.46-1.21,0.85-2.08,1.17C288.77,159.75,287.77,159.91,286.63,159.91z M286.27,148.02c-0.77,0-1.4,0.31-1.9,0.92
				c-0.5,0.61-0.8,1.39-0.92,2.33l0.03,0.06h5.5v-0.32c0-0.88-0.22-1.6-0.67-2.15C287.86,148.3,287.18,148.02,286.27,148.02z"/>
			<path class="st2" d="M296.67,152.58c0-2.06,0.56-3.75,1.69-5.07c1.14-1.32,2.7-1.99,4.65-1.99c1.99,0,3.55,0.66,4.68,1.99
				c1.14,1.32,1.7,3.01,1.7,5.07v0.27c0,2.08-0.57,3.79-1.7,5.1c-1.13,1.31-2.68,1.96-4.65,1.96c-1.98,0-3.54-0.66-4.68-1.97
				c-1.13-1.32-1.69-3.01-1.69-5.09V152.58z M299.79,152.85c0,1.35,0.26,2.45,0.79,3.3c0.52,0.84,1.34,1.27,2.46,1.27
				c1.08,0,1.9-0.42,2.43-1.27c0.55-0.85,0.82-1.95,0.82-3.3v-0.27c0-1.32-0.27-2.41-0.82-3.26c-0.54-0.86-1.36-1.29-2.46-1.29
				c-1.08,0-1.9,0.43-2.43,1.29c-0.53,0.86-0.79,1.95-0.79,3.26V152.85z"/>
			<path class="st2" d="M326.82,153.17c0,2.02-0.47,3.64-1.42,4.88s-2.27,1.86-3.96,1.86c-0.79,0-1.48-0.14-2.09-0.42
				c-0.61-0.28-1.13-0.7-1.56-1.24v6.73h-3.11v-19.2h2.63l0.31,1.74c0.44-0.65,0.98-1.14,1.61-1.49s1.36-0.51,2.19-0.51
				c1.71,0,3.04,0.68,3.99,2.03c0.95,1.35,1.43,3.14,1.43,5.35V153.17z M323.72,152.9c0-1.42-0.27-2.57-0.8-3.47
				c-0.53-0.9-1.33-1.35-2.39-1.35c-0.65,0-1.2,0.14-1.65,0.42c-0.45,0.28-0.82,0.66-1.09,1.16v6.26c0.27,0.49,0.64,0.86,1.09,1.12
				c0.45,0.26,1.01,0.39,1.68,0.39c1.06,0,1.85-0.39,2.38-1.17s0.79-1.81,0.79-3.08V152.9z"/>
			<path class="st2" d="M335.36,159.64h-3.11v-19.99h3.11V159.64z"/>
			<path class="st2" d="M347.23,159.91c-1.96,0-3.53-0.64-4.7-1.93c-1.17-1.29-1.75-2.94-1.75-4.95v-0.51
				c0-2.02,0.58-3.69,1.74-5.02c1.16-1.33,2.61-1.99,4.35-1.98c1.87,0,3.3,0.57,4.3,1.7c1,1.13,1.49,2.65,1.49,4.56v1.83h-8.65
				l-0.03,0.06c0.05,1.1,0.37,2,0.97,2.69c0.59,0.7,1.42,1.05,2.47,1.05c0.84,0,1.55-0.1,2.15-0.31c0.6-0.21,1.17-0.5,1.73-0.88
				l1,2.04c-0.52,0.46-1.21,0.85-2.08,1.17C349.36,159.75,348.37,159.91,347.23,159.91z M346.87,148.02c-0.77,0-1.4,0.31-1.9,0.92
				c-0.5,0.61-0.8,1.39-0.92,2.33l0.03,0.06h5.5v-0.32c0-0.88-0.22-1.6-0.67-2.15C348.45,148.3,347.78,148.02,346.87,148.02z"/>
		</g>
	</g>
	<g>
		<g>
			<g>
				<path class="st2" d="M368.22,79.21c-5.88,0-10.67-4.79-10.67-10.67s4.79-10.67,10.67-10.67c5.88,0,10.67,4.79,10.67,10.67
					S374.11,79.21,368.22,79.21z M368.22,59.18c-5.16,0-9.36,4.2-9.36,9.36c0,5.16,4.2,9.36,9.36,9.36c5.16,0,9.36-4.2,9.36-9.36
					C377.58,63.38,373.38,59.18,368.22,59.18z"/>
			</g>
			<g>
				<g>
					<path class="st2" d="M368.27,69.61h-2.63v4.54h-1.49V62.93h3.71c1.26,0,2.23,0.29,2.91,0.86c0.68,0.57,1.02,1.41,1.02,2.51
						c0,0.7-0.19,1.31-0.57,1.83c-0.38,0.52-0.9,0.91-1.57,1.16l2.63,4.76v0.09h-1.59L368.27,69.61z M365.64,68.4h2.27
						c0.73,0,1.32-0.19,1.75-0.57c0.43-0.38,0.65-0.89,0.65-1.53c0-0.69-0.21-1.23-0.62-1.6c-0.41-0.37-1.01-0.56-1.79-0.56h-2.26
						V68.4z"/>
				</g>
			</g>
		</g>
	</g>
</g>
</svg>
